<?xml version="1.0" encoding="utf-8"?>
<!-- Generator: Adobe Illustrator 27.1.1, SVG Export Plug-In . SVG Version: 6.00 Build 0)  -->
<svg version="1.1" id="Capa_1" xmlns="http://www.w3.org/2000/svg" xmlns:xlink="http://www.w3.org/1999/xlink" x="0px" y="0px"
	 viewBox="0 0 650 400" style="enable-background:new 0 0 650 400;" xml:space="preserve">
<style type="text/css">
	.st0{opacity:0.1;fill:#282626;}
	.st1{opacity:0.15;fill:#282626;}
	.st2{fill:#DB2E2E;}
	.st3{fill:#FFFFFF;}
	.st4{fill:#2E4593;}
</style>
<g>
	<polygon class="st0" points="10,47 10,47.9 10,74.6 10,74.6 10,102.1 10,102.2 10,129.8 10,129.8 10,157.4 10,157.4 10,185 
		10,185.1 10,212.6 10,212.7 10,215 10,240.2 10,240.3 10,267.8 10,267.8 10,295.4 10,295.5 10,323 10,323.1 10,350.6 10,350.7 
		10,378.2 10,378.3 10,405.8 590.5,405.8 590.5,378.3 590.5,378.2 590.5,350.7 590.5,350.6 590.5,323.1 590.5,323 590.5,295.5 
		590.5,295.4 590.5,267.8 590.5,267.8 590.5,240.3 590.5,240.2 590.5,212.7 590.5,212.6 590.5,185.1 590.5,185 590.5,157.4 
		590.5,157.4 590.5,129.8 590.5,129.8 590.5,102.2 590.5,102.1 590.5,74.6 590.5,74.6 590.5,47 	"/>
	<polygon class="st1" points="27.8,34.6 27.8,35.5 27.8,62.2 27.8,62.3 27.8,89.8 27.8,89.9 27.8,117.4 27.8,117.5 27.8,145.1 
		27.8,145.1 27.8,172.7 27.8,172.7 27.8,200.3 27.8,200.3 27.8,202.7 27.8,227.8 27.8,228 27.8,255.5 27.8,255.5 27.8,283.1 
		27.8,283.1 27.8,310.7 27.8,310.7 27.8,338.3 27.8,338.3 27.8,365.8 27.8,366 27.8,393.5 608.3,393.5 608.3,366 608.3,365.8 
		608.3,338.3 608.3,338.3 608.3,310.7 608.3,310.7 608.3,283.1 608.3,283.1 608.3,255.5 608.3,255.5 608.3,228 608.3,227.8 
		608.3,200.3 608.3,200.3 608.3,172.7 608.3,172.7 608.3,145.1 608.3,145.1 608.3,117.5 608.3,117.4 608.3,89.9 608.3,89.8 
		608.3,62.3 608.3,62.2 608.3,34.6 	"/>
	<g>
		<g>
			<g>
				<g>
					<g>
						<rect x="59.5" y="119" class="st2" width="580.5" height="27.7"/>
					</g>
					<g>
						<rect x="59.5" y="63.7" class="st2" width="580.5" height="27.7"/>
					</g>
					<g>
						<rect x="59.5" y="8.5" class="st2" width="580.5" height="27.7"/>
					</g>
					<g>
						<rect x="59.5" y="174.2" class="st2" width="580.5" height="27.7"/>
					</g>
					<g>
						<rect x="59.5" y="229.4" class="st2" width="580.5" height="27.7"/>
					</g>
					<g>
						<rect x="59.5" y="284.6" class="st2" width="580.5" height="27.7"/>
					</g>
					<g>
						<rect x="59.5" y="339.7" class="st2" width="580.5" height="27.7"/>
					</g>
				</g>
			</g>
			<g>
				<rect x="59.5" y="91.4" class="st3" width="580.5" height="27.7"/>
			</g>
			<g>
				<rect x="59.5" y="36.2" class="st3" width="580.5" height="27.7"/>
			</g>
			<g>
				<rect x="59.5" y="146.6" class="st3" width="580.5" height="27.7"/>
			</g>
			<g>
				<rect x="59.5" y="201.7" class="st3" width="580.5" height="27.7"/>
			</g>
			<g>
				<rect x="59.5" y="257" class="st3" width="580.5" height="27.7"/>
			</g>
			<g>
				<rect x="59.5" y="312.2" class="st3" width="580.5" height="27.7"/>
			</g>
		</g>
		<g>
			<rect x="59.5" y="9.4" class="st4" width="217.1" height="167.1"/>
		</g>
		<g>
			<g>
				<g>
					<g>
						<polygon class="st3" points="240.9,42.6 243.2,49.1 237.8,45 237.7,45 237.7,45 232.3,49.1 234.5,42.6 234.6,42.6 234.6,42.6 
							228.9,38.8 235.7,38.8 237.6,32.3 239.7,38.8 239.7,38.8 239.7,38.8 246.6,38.8 240.9,42.6 240.9,42.6 						"/>
					</g>
				</g>
				<g>
					<g>
						<polygon class="st3" points="240.9,76.4 243.2,82.9 237.8,78.8 237.7,78.8 237.7,78.8 232.3,82.9 234.5,76.4 234.6,76.4 
							234.6,76.4 228.9,72.5 235.7,72.5 237.6,66 239.7,72.5 239.7,72.6 239.7,72.5 246.6,72.5 240.9,76.4 240.9,76.4 						"/>
					</g>
				</g>
				<g>
					<g>
						<polygon class="st3" points="240.9,110.2 243.2,116.6 237.8,112.6 237.7,112.5 237.7,112.6 232.3,116.6 234.5,110.2 
							234.6,110.1 234.6,110.1 228.9,106.3 235.7,106.3 237.6,99.8 239.7,106.3 239.7,106.3 239.7,106.3 246.6,106.3 240.9,110.1 
							240.9,110.1 						"/>
					</g>
				</g>
				<g>
					<g>
						<polygon class="st3" points="240.9,143.9 243.2,150.4 237.8,146.3 237.7,146.3 237.7,146.3 232.3,150.4 234.5,143.9 
							234.6,143.9 234.6,143.9 228.9,140.1 235.7,140.1 237.6,133.5 239.7,140.1 239.7,140.1 239.7,140.1 246.6,140.1 240.9,143.9 
							240.9,143.9 						"/>
					</g>
				</g>
			</g>
			<g>
				<g>
					<g>
						<polygon class="st3" points="205.1,42.6 207.4,49.1 201.9,45 201.8,45 201.8,45 196.3,49.1 198.6,42.6 198.7,42.6 198.7,42.6 
							193,38.8 199.8,38.8 201.7,32.3 203.8,38.8 203.8,38.8 203.8,38.8 210.7,38.8 205,42.6 205,42.6 						"/>
					</g>
				</g>
				<g>
					<g>
						<polygon class="st3" points="205.1,76.4 207.4,82.9 201.9,78.8 201.8,78.8 201.8,78.8 196.3,82.9 198.6,76.4 198.7,76.4 
							198.7,76.4 193,72.5 199.8,72.5 201.7,66 203.8,72.5 203.8,72.6 203.8,72.5 210.7,72.5 205,76.4 205,76.4 						"/>
					</g>
				</g>
				<g>
					<g>
						<polygon class="st3" points="205.1,110.2 207.4,116.6 201.9,112.6 201.8,112.5 201.8,112.6 196.3,116.6 198.6,110.2 
							198.7,110.1 198.7,110.1 193,106.3 199.8,106.3 201.7,99.8 203.8,106.3 203.8,106.3 203.8,106.3 210.7,106.3 205,110.1 
							205,110.1 						"/>
					</g>
				</g>
				<g>
					<g>
						<polygon class="st3" points="205.1,143.9 207.4,150.4 201.9,146.3 201.8,146.3 201.8,146.3 196.3,150.4 198.6,143.9 
							198.7,143.9 198.7,143.9 193,140.1 199.8,140.1 201.7,133.5 203.8,140.1 203.8,140.1 203.8,140.1 210.7,140.1 205,143.9 
							205,143.9 						"/>
					</g>
				</g>
			</g>
			<g>
				<g>
					<g>
						<polygon class="st3" points="169.1,42.6 171.5,49.1 165.9,45 165.9,45 165.9,45 160.4,49.1 162.7,42.6 162.8,42.6 162.8,42.6 
							157.1,38.8 163.9,38.8 165.8,32.3 167.9,38.8 167.9,38.8 167.9,38.8 174.8,38.8 169.1,42.6 169.1,42.6 						"/>
					</g>
				</g>
				<g>
					<g>
						<polygon class="st3" points="169.1,76.4 171.5,82.9 165.9,78.8 165.9,78.8 165.9,78.8 160.4,82.9 162.7,76.4 162.8,76.4 
							162.8,76.4 157.1,72.5 163.9,72.5 165.8,66 167.9,72.5 167.9,72.6 167.9,72.5 174.8,72.5 169.1,76.4 169.1,76.4 						"/>
					</g>
				</g>
				<g>
					<g>
						<polygon class="st3" points="169.1,110.2 171.5,116.6 165.9,112.6 165.9,112.5 165.9,112.6 160.4,116.6 162.7,110.2 
							162.8,110.1 162.8,110.1 157.1,106.3 163.9,106.3 165.8,99.8 167.9,106.3 167.9,106.3 167.9,106.3 174.8,106.3 169.1,110.1 
							169.1,110.1 						"/>
					</g>
				</g>
				<g>
					<g>
						<polygon class="st3" points="169.1,143.9 171.5,150.4 165.9,146.3 165.9,146.3 165.9,146.3 160.4,150.4 162.7,143.9 
							162.8,143.9 162.8,143.9 157.1,140.1 163.9,140.1 165.8,133.5 167.9,140.1 167.9,140.1 167.9,140.1 174.8,140.1 169.1,143.9 
							169.1,143.9 						"/>
					</g>
				</g>
			</g>
			<g>
				<g>
					<g>
						<polygon class="st3" points="133.8,42.6 136.1,49.1 130.6,45 130.6,45 130.6,45 125.1,49.1 127.4,42.6 127.5,42.6 127.5,42.6 
							121.8,38.8 128.6,38.8 130.5,32.3 132.6,38.8 132.5,38.8 132.6,38.8 139.4,38.8 133.8,42.6 133.8,42.6 						"/>
					</g>
				</g>
				<g>
					<g>
						<polygon class="st3" points="133.8,76.4 136.1,82.9 130.6,78.8 130.6,78.8 130.6,78.8 125.1,82.9 127.4,76.4 127.5,76.4 
							127.5,76.4 121.8,72.5 128.6,72.5 130.5,66 132.6,72.5 132.5,72.6 132.6,72.5 139.4,72.5 133.8,76.4 133.8,76.4 						"/>
					</g>
				</g>
				<g>
					<g>
						<polygon class="st3" points="133.8,110.2 136.1,116.6 130.6,112.6 130.6,112.5 130.6,112.6 125.1,116.6 127.4,110.2 
							127.5,110.1 127.5,110.1 121.8,106.3 128.6,106.3 130.5,99.8 132.6,106.3 132.5,106.3 132.6,106.3 139.4,106.3 133.8,110.1 
							133.8,110.1 						"/>
					</g>
				</g>
				<g>
					<g>
						<polygon class="st3" points="133.8,143.9 136.1,150.4 130.6,146.3 130.6,146.3 130.6,146.3 125.1,150.4 127.4,143.9 
							127.5,143.9 127.5,143.9 121.8,140.1 128.6,140.1 130.5,133.5 132.6,140.1 132.5,140.1 132.6,140.1 139.4,140.1 133.8,143.9 
							133.8,143.9 						"/>
					</g>
				</g>
			</g>
			<g>
				<g>
					<g>
						<polygon class="st3" points="98.5,42.6 100.8,49.1 95.3,45 95.3,45 95.3,45 89.8,49.1 92.1,42.6 92.1,42.6 92.1,42.6 
							86.5,38.8 93.3,38.8 95.1,32.3 97.2,38.8 97.2,38.8 97.2,38.8 104.1,38.8 98.4,42.6 98.4,42.6 						"/>
					</g>
				</g>
				<g>
					<g>
						<polygon class="st3" points="98.5,76.4 100.8,82.9 95.3,78.8 95.3,78.8 95.3,78.8 89.8,82.9 92.1,76.4 92.1,76.4 92.1,76.4 
							86.5,72.5 93.3,72.5 95.1,66 97.2,72.5 97.2,72.6 97.2,72.5 104.1,72.5 98.4,76.4 98.4,76.4 						"/>
					</g>
				</g>
				<g>
					<g>
						<polygon class="st3" points="98.5,110.2 100.8,116.6 95.3,112.6 95.3,112.5 95.3,112.6 89.8,116.6 92.1,110.2 92.1,110.1 
							92.1,110.1 86.5,106.3 93.3,106.3 95.1,99.8 97.2,106.3 97.2,106.3 97.2,106.3 104.1,106.3 98.4,110.1 98.4,110.1 						"/>
					</g>
				</g>
				<g>
					<g>
						<polygon class="st3" points="98.5,143.9 100.8,150.4 95.3,146.3 95.3,146.3 95.3,146.3 89.8,150.4 92.1,143.9 92.1,143.9 
							92.1,143.9 86.5,140.1 93.3,140.1 95.1,133.5 97.2,140.1 97.2,140.1 97.2,140.1 104.1,140.1 98.4,143.9 98.4,143.9 						"/>
					</g>
				</g>
			</g>
			<g>
				<g>
					<g>
						<polygon class="st3" points="258.4,59.5 260.6,65.9 255.2,61.9 255.2,61.9 255.2,61.9 249.7,65.9 251.9,59.5 252,59.4 
							252,59.4 246.3,55.6 253.1,55.6 255,49.1 257.1,55.6 257.1,55.7 257.1,55.6 264,55.6 258.3,59.4 258.3,59.4 						"/>
					</g>
				</g>
				<g>
					<g>
						<polygon class="st3" points="258.4,93.3 260.6,99.7 255.2,95.7 255.2,95.7 255.2,95.7 249.7,99.7 251.9,93.3 252,93.2 
							252,93.2 246.3,89.4 253.1,89.4 255,82.9 257.1,89.4 257.1,89.4 257.1,89.4 264,89.4 258.3,93.2 258.3,93.2 						"/>
					</g>
				</g>
				<g>
					<g>
						<polygon class="st3" points="258.4,127.1 260.6,133.5 255.2,129.5 255.2,129.4 255.2,129.5 249.7,133.5 251.9,127.1 252,127 
							252,127 246.3,123.2 253.1,123.2 255,116.7 257.1,123.2 257.1,123.2 257.1,123.2 264,123.2 258.3,127 258.3,127 						"/>
					</g>
				</g>
				<g>
					<g>
						<polygon class="st3" points="258.4,160.9 260.6,167.4 255.2,163.3 255.2,163.3 255.2,163.3 249.7,167.4 251.9,160.9 
							252,160.8 252,160.8 246.3,157 253.1,157 255,150.5 257.1,157 257.1,157.1 257.1,157 264,157 258.3,160.8 258.3,160.8 						
							"/>
					</g>
				</g>
				<g>
					<g>
						<polygon class="st3" points="258.4,25.9 260.6,32.3 255.2,28.3 255.2,28.3 255.2,28.3 249.7,32.3 251.9,25.9 252,25.8 
							252,25.8 246.3,22 253.1,22 255,15.5 257.1,22 257.1,22 257.1,22 264,22 258.3,25.8 258.3,25.8 						"/>
					</g>
				</g>
			</g>
			<g>
				<g>
					<g>
						<polygon class="st3" points="223.2,59.5 225.5,65.9 220.1,61.9 220.1,61.9 220.1,61.9 214.6,65.9 216.8,59.5 216.9,59.4 
							216.9,59.4 211.2,55.6 218,55.6 219.9,49.1 222,55.6 222,55.7 222,55.6 228.9,55.6 223.2,59.4 223.2,59.4 						"/>
					</g>
				</g>
				<g>
					<g>
						<polygon class="st3" points="223.2,93.3 225.5,99.7 220.1,95.7 220.1,95.7 220.1,95.7 214.6,99.7 216.8,93.3 216.9,93.2 
							216.9,93.2 211.2,89.4 218,89.4 219.9,82.9 222,89.4 222,89.4 222,89.4 228.9,89.4 223.2,93.2 223.2,93.2 						"/>
					</g>
				</g>
				<g>
					<g>
						<polygon class="st3" points="223.2,127.1 225.5,133.5 220.1,129.5 220.1,129.4 220.1,129.5 214.6,133.5 216.8,127.1 
							216.9,127 216.9,127 211.2,123.2 218,123.2 219.9,116.7 222,123.2 222,123.2 222,123.2 228.9,123.2 223.2,127 223.2,127 
													"/>
					</g>
				</g>
				<g>
					<g>
						<polygon class="st3" points="223.2,160.9 225.5,167.4 220.1,163.3 220.1,163.3 220.1,163.3 214.6,167.4 216.8,160.9 
							216.9,160.8 216.9,160.8 211.2,157 218,157 219.9,150.5 222,157 222,157.1 222,157 228.9,157 223.2,160.8 223.2,160.8 						
							"/>
					</g>
				</g>
				<g>
					<g>
						<polygon class="st3" points="223.2,25.9 225.5,32.3 220.1,28.3 220.1,28.3 220.1,28.3 214.6,32.3 216.8,25.9 216.9,25.8 
							216.9,25.8 211.2,22 218,22 219.9,15.5 222,22 222,22 222,22 228.9,22 223.2,25.8 223.2,25.8 						"/>
					</g>
				</g>
			</g>
			<g>
				<g>
					<g>
						<polygon class="st3" points="186.7,59.5 189.1,65.9 183.5,61.9 183.5,61.9 183.5,61.9 178.1,65.9 180.4,59.5 180.4,59.4 
							180.4,59.4 174.7,55.6 181.5,55.6 183.4,49.1 185.5,55.6 185.5,55.7 185.5,55.6 192.4,55.6 186.7,59.4 186.7,59.4 						"/>
					</g>
				</g>
				<g>
					<g>
						<polygon class="st3" points="186.7,93.3 189.1,99.7 183.5,95.7 183.5,95.7 183.5,95.7 178.1,99.7 180.4,93.3 180.4,93.2 
							180.4,93.2 174.7,89.4 181.5,89.4 183.4,82.9 185.5,89.4 185.5,89.4 185.5,89.4 192.4,89.4 186.7,93.2 186.7,93.2 						"/>
					</g>
				</g>
				<g>
					<g>
						<polygon class="st3" points="186.7,127.1 189.1,133.5 183.5,129.5 183.5,129.4 183.5,129.5 178.1,133.5 180.4,127.1 
							180.4,127 180.4,127 174.7,123.2 181.5,123.2 183.4,116.7 185.5,123.2 185.5,123.2 185.5,123.2 192.4,123.2 186.7,127 
							186.7,127 						"/>
					</g>
				</g>
				<g>
					<g>
						<polygon class="st3" points="186.7,160.9 189.1,167.4 183.5,163.3 183.5,163.3 183.5,163.3 178.1,167.4 180.4,160.9 
							180.4,160.8 180.4,160.8 174.7,157 181.5,157 183.4,150.5 185.5,157 185.5,157.1 185.5,157 192.4,157 186.7,160.8 
							186.7,160.8 						"/>
					</g>
				</g>
				<g>
					<g>
						<polygon class="st3" points="186.7,25.9 189.1,32.3 183.5,28.3 183.5,28.3 183.5,28.3 178.1,32.3 180.4,25.9 180.4,25.8 
							180.4,25.8 174.7,22 181.5,22 183.4,15.5 185.5,22 185.5,22 185.5,22 192.4,22 186.7,25.8 186.7,25.8 						"/>
					</g>
				</g>
			</g>
			<g>
				<g>
					<g>
						<polygon class="st3" points="151,59.5 153.3,65.9 147.9,61.9 147.8,61.9 147.8,61.9 142.3,65.9 144.6,59.5 144.7,59.4 
							144.7,59.4 139,55.6 145.8,55.6 147.7,49.1 149.8,55.6 149.8,55.7 149.8,55.6 156.7,55.6 151,59.4 151,59.4 						"/>
					</g>
				</g>
				<g>
					<g>
						<polygon class="st3" points="151,93.3 153.3,99.7 147.9,95.7 147.8,95.7 147.8,95.7 142.3,99.7 144.6,93.3 144.7,93.2 
							144.7,93.2 139,89.4 145.8,89.4 147.7,82.9 149.8,89.4 149.8,89.4 149.8,89.4 156.7,89.4 151,93.2 151,93.2 						"/>
					</g>
				</g>
				<g>
					<g>
						<polygon class="st3" points="151,127.1 153.3,133.5 147.9,129.5 147.8,129.4 147.8,129.5 142.3,133.5 144.6,127.1 144.7,127 
							144.7,127 139,123.2 145.8,123.2 147.7,116.7 149.8,123.2 149.8,123.2 149.8,123.2 156.7,123.2 151,127 151,127 						"/>
					</g>
				</g>
				<g>
					<g>
						<polygon class="st3" points="151,160.9 153.3,167.4 147.9,163.3 147.8,163.3 147.8,163.3 142.3,167.4 144.6,160.9 
							144.7,160.8 144.7,160.8 139,157 145.8,157 147.7,150.5 149.8,157 149.8,157.1 149.8,157 156.7,157 151,160.8 151,160.8 
													"/>
					</g>
				</g>
				<g>
					<g>
						<polygon class="st3" points="151,25.9 153.3,32.3 147.9,28.3 147.8,28.3 147.8,28.3 142.3,32.3 144.6,25.9 144.7,25.8 
							144.7,25.8 139,22 145.8,22 147.7,15.5 149.8,22 149.8,22 149.8,22 156.7,22 151,25.8 151,25.8 						"/>
					</g>
				</g>
			</g>
			<g>
				<g>
					<g>
						<polygon class="st3" points="116.1,59.5 118.4,65.9 112.9,61.9 112.9,61.9 112.9,61.9 107.4,65.9 109.7,59.5 109.7,59.4 
							109.7,59.4 104.1,55.6 110.8,55.6 112.7,49.1 114.8,55.6 114.8,55.7 114.8,55.6 121.7,55.6 116,59.4 116,59.4 						"/>
					</g>
				</g>
				<g>
					<g>
						<polygon class="st3" points="116.1,93.3 118.4,99.7 112.9,95.7 112.9,95.7 112.9,95.7 107.4,99.7 109.7,93.3 109.7,93.2 
							109.7,93.2 104.1,89.4 110.8,89.4 112.7,82.9 114.8,89.4 114.8,89.4 114.8,89.4 121.7,89.4 116,93.2 116,93.2 						"/>
					</g>
				</g>
				<g>
					<g>
						<polygon class="st3" points="116.1,127.1 118.4,133.5 112.9,129.5 112.9,129.4 112.9,129.5 107.4,133.5 109.7,127.1 
							109.7,127 109.7,127 104.1,123.2 110.8,123.2 112.7,116.7 114.8,123.2 114.8,123.2 114.8,123.2 121.7,123.2 116,127 116,127 
													"/>
					</g>
				</g>
				<g>
					<g>
						<polygon class="st3" points="116.1,160.9 118.4,167.4 112.9,163.3 112.9,163.3 112.9,163.3 107.4,167.4 109.7,160.9 
							109.7,160.8 109.7,160.8 104.1,157 110.8,157 112.7,150.5 114.8,157 114.8,157.1 114.8,157 121.7,157 116,160.8 116,160.8 
													"/>
					</g>
				</g>
				<g>
					<g>
						<polygon class="st3" points="116.1,25.9 118.4,32.3 112.9,28.3 112.9,28.3 112.9,28.3 107.4,32.3 109.7,25.9 109.7,25.8 
							109.7,25.8 104.1,22 110.8,22 112.7,15.5 114.8,22 114.8,22 114.8,22 121.7,22 116,25.8 116,25.8 						"/>
					</g>
				</g>
			</g>
			<g>
				<g>
					<g>
						<polygon class="st3" points="80.5,59.5 82.8,65.9 77.4,61.9 77.3,61.9 77.3,61.9 71.8,65.9 74.2,59.5 74.2,59.4 74.2,59.4 
							68.5,55.6 75.3,55.6 77.2,49.1 79.3,55.6 79.3,55.7 79.3,55.6 86.2,55.6 80.5,59.4 80.5,59.4 						"/>
					</g>
				</g>
				<g>
					<g>
						<polygon class="st3" points="80.5,93.3 82.8,99.7 77.4,95.7 77.3,95.7 77.3,95.7 71.8,99.7 74.2,93.3 74.2,93.2 74.2,93.2 
							68.5,89.4 75.3,89.4 77.2,82.9 79.3,89.4 79.3,89.4 79.3,89.4 86.2,89.4 80.5,93.2 80.5,93.2 						"/>
					</g>
				</g>
				<g>
					<g>
						<polygon class="st3" points="80.5,127.1 82.8,133.5 77.4,129.5 77.3,129.4 77.3,129.5 71.8,133.5 74.2,127.1 74.2,127 
							74.2,127 68.5,123.2 75.3,123.2 77.2,116.7 79.3,123.2 79.3,123.2 79.3,123.2 86.2,123.2 80.5,127 80.5,127 						"/>
					</g>
				</g>
				<g>
					<g>
						<polygon class="st3" points="80.5,160.9 82.8,167.4 77.4,163.3 77.3,163.3 77.3,163.3 71.8,167.4 74.2,160.9 74.2,160.8 
							74.2,160.8 68.5,157 75.3,157 77.2,150.5 79.3,157 79.3,157.1 79.3,157 86.2,157 80.5,160.8 80.5,160.8 						"/>
					</g>
				</g>
				<g>
					<g>
						<polygon class="st3" points="80.5,25.9 82.8,32.3 77.4,28.3 77.3,28.3 77.3,28.3 71.8,32.3 74.2,25.9 74.2,25.8 74.2,25.8 
							68.5,22 75.3,22 77.2,15.5 79.3,22 79.3,22 79.3,22 86.2,22 80.5,25.8 80.5,25.8 						"/>
					</g>
				</g>
			</g>
		</g>
	</g>
</g>
</svg>
