<?xml version="1.0" encoding="utf-8"?>
<!-- Generator: Adobe Illustrator 27.1.1, SVG Export Plug-In . SVG Version: 6.00 Build 0)  -->
<svg version="1.1" id="Capa_1" xmlns="http://www.w3.org/2000/svg" xmlns:xlink="http://www.w3.org/1999/xlink" x="0px" y="0px"
	 viewBox="0 0 881.4 146" style="enable-background:new 0 0 881.4 146;" xml:space="preserve">
<style type="text/css">
	.st0{fill:#FFFFFF;}
</style>
<g id="layer1">
	<path id="path2" class="st0" d="M770.5,21.3c-5,0-9.3,4.3-9.3,9.4c0,5.3,4.3,9.4,9.3,9.4c5.2,0,9.4-4.4,9.4-9.4
		C779.9,25.4,775.7,21.3,770.5,21.3z M112.2,25.7C93,28.1,74.4,31.5,55.9,37c-2.5,0.8-3.9,3.5-3.3,5.8c1.4,5.3,2,8,3.4,13.4
		c0.6,2.2,2.9,3.5,5.2,2.7c19-5.8,38-9.8,57.6-12.7c2.2-0.3,3.5-2.6,2.7-5c-1.7-4.9-2.6-7.4-4.4-12.3
		C116.3,26.9,114.2,25.5,112.2,25.7z M503.4,26.3c-4.8,0-14,2.7-18.2,5.8v78.2h18.2V26.3z M708.8,26.3c-4.7,0-14,2.7-18.2,5.8v74.6
		c6.1,2.8,16.1,4.8,26.4,4.8c21.2,0,34.3-12.8,34.3-34.9c0-15.8-7.4-28.3-25.3-28.3c-5.7,0-12,2.5-17.2,6.9L708.8,26.3L708.8,26.3z
		 M190.3,29.2c-8.8,0-16.3,1-26.2,2.5v78.6h29.7c16.2,0,30.4-9.5,30.4-23.7c0-10.8-4.7-17.5-15.6-20.7c7.1-2.8,11.1-7.9,11.1-15.6
		C219.6,36.9,206.6,29.2,190.3,29.2z M190.3,44.5c7.6,0,11.1,3.5,11.1,8.5c0,5.3-3.4,8.3-10.6,8.3h-8.2V45.2
		C185.1,44.8,187.7,44.5,190.3,44.5z M392.5,48.1c-19,0-33.8,11.2-33.8,32.5c0,19.7,12.2,30.9,30.8,30.9c5.4,0,12.3-1.2,19-3.9
		L405.2,93c-4.5,1.6-8.1,2.2-11.3,2.2c-11.5,0-16.1-6-16.1-15.7c0-9.6,5-15.9,17.2-15.9c1.9,0,5.3,0.5,7.4,1.1
		c2.7-3,5.3-8.4,6.1-14.5C402.6,48.8,397.8,48.1,392.5,48.1z M443.5,48.1c-18.5,0-31.5,12.2-31.5,31.7c0,19.3,12.3,31.8,31.5,31.8
		c19,0,31.5-12.2,31.5-31.8C474.9,60.7,462.6,48.1,443.5,48.1z M545.1,48.1c-18.5,0-31.5,12.2-31.5,31.7c0,19.3,12.3,31.8,31.5,31.8
		c19,0,31.5-12.2,31.5-31.8C576.7,60.7,564.3,48.1,545.1,48.1z M325.3,48.2c-10,0-22.3,2.8-29.9,7.9l-0.1,54.2h18.2V64.6
		c2.3-0.6,5-1,7.7-1c7.4,0,11.6,3.3,11.6,9.7v36.9h18.1V67C350.9,55.1,339.2,48.2,325.3,48.2L325.3,48.2z M613.9,48.2
		c-9.5,0-20.8,2.8-28.1,7.9l-0.1,54.2h18.2V64.6c2.3-0.6,5-1,7.7-1c7.2,0,11.3,3.3,11.3,9.7v36.9h18V74.2c0-3.2-0.5-6.1-1.4-8.7
		c2.7-1.1,5.9-1.8,9.3-1.8c7.2,0,11.3,3.3,11.3,9.7v36.9h18V67c0-11.7-10.2-18.8-23.4-18.8c-7.2,0-15.8,2.7-22,6.7
		C628,50.7,621.5,48.2,613.9,48.2L613.9,48.2z M770.6,48.2c-3.5,0-6.6,0.6-9.2,1.7v60.4h18.2V49.9C777.1,48.8,774.2,48.2,770.6,48.2
		L770.6,48.2z M256.9,48.3c-7.9,0-15.3,1.9-22.8,4.8l1.4,4.4c1.9,5.3,4.3,7.2,7.1,7.2c1.2,0,10.5-1.6,14-1.6c6.6,0,9.7,1.9,10,9.5
		c-19.9,0.6-36.7,4.9-36.7,22.3c0,11.5,10.5,16.8,23.1,16.8c14.2,0,24.7-2.7,31.2-7.6V71.9C284.4,54.9,274.3,48.3,256.9,48.3
		L256.9,48.3z M815.6,48.3c-7.9,0-15.3,1.9-22.8,4.8l1.4,4.4c1.9,5.3,4.3,7.2,7.1,7.2c1.2,0,10.5-1.6,14-1.6c6.6,0,9.7,1.9,10,9.5
		c-19.9,0.6-36.7,4.9-36.7,22.3c0,11.5,10.5,16.8,23.1,16.8c14.2,0,24.7-2.7,31.2-7.6V71.9C843.2,54.9,833,48.3,815.6,48.3
		L815.6,48.3z M128.2,55.5c-30,3.8-59.2,11.3-87,23.6c-2,0.9-3.2,3.5-2.8,5.8c1.1,5.8,1.7,8.6,2.7,14.4c0.5,2.5,2.7,3.6,5,2.5
		c28.2-12.9,57.9-21.1,88.4-26c1.9-0.3,3-2.5,2.2-4.8c-1.5-4.8-2.3-7.1-3.9-11.8C132.1,56.7,130.2,55.3,128.2,55.5z M718.1,63.6
		c9.3,0,15.1,4,15.1,15.2c0,9.7-4.6,18-15.2,18c-2.9,0-6.1-0.2-9.3-0.7V65.6C711.4,64.4,714.4,63.6,718.1,63.6z M443.5,63.9
		c8.4,0,13.3,5.8,13.3,15.9c0,10.5-4.8,15.9-13.3,15.9c-8.3,0-13.3-5.5-13.3-15.9C430.2,69.8,435.2,63.9,443.5,63.9z M545.1,63.9
		c8.4,0,13.3,5.8,13.3,15.9c0,10.5-4.8,15.9-13.3,15.9c-8.3,0-13.3-5.5-13.3-15.9C531.9,69.8,536.9,63.9,545.1,63.9z M182.5,76.5
		h9.7c8.1,0,12.2,2.7,12.2,9.2c0,6-4.5,9.2-12.3,9.2h-9.5V76.5z M263.2,84.3h3.5v10.5c-1.8,1.6-5.7,3-10.4,3c-5.9,0-8.8-1.6-8.8-6
		C247.5,86.1,255,84.3,263.2,84.3z M821.9,84.3h3.5v10.5c-1.8,1.6-5.7,3-10.4,3c-5.9,0-8.8-1.6-8.8-6
		C806.3,86.1,813.7,84.3,821.9,84.3z M127.8,87.5c-18.8,4-37.1,8.9-55.2,15.2c-2.3,0.9-3.6,3.2-3,5.5c1.4,5.3,2.2,8,3.6,13.3
		c0.7,2.5,3.5,3.8,6.1,2.8c18.2-6.5,36.5-12.2,55.2-16.7c1.8-0.4,2.7-2.5,2-4.7c-1.4-4.8-2.2-7.2-3.8-12
		C132.1,88.6,129.9,87.1,127.8,87.5z"/>
</g>
</svg>
