<?xml version="1.0" encoding="utf-8"?>
<!-- Generator: Adobe Illustrator 27.1.1, SVG Export Plug-In . SVG Version: 6.00 Build 0)  -->
<svg version="1.1" id="Capa_1" xmlns="http://www.w3.org/2000/svg" xmlns:xlink="http://www.w3.org/1999/xlink" x="0px" y="0px"
	 viewBox="0 0 400 146" style="enable-background:new 0 0 400 146;" xml:space="preserve">
<style type="text/css">
	.st0{fill:#B0F2AE;}
	.st1{fill:#2C2A29;}
</style>
<g>
	<path class="st0" d="M388.1,145.9H11.9C5.3,145.9,0,140.6,0,134V12C0,5.4,5.3,0.1,11.9,0.1h376.2c6.6,0,11.9,5.3,11.9,11.9V134
		C400,140.6,394.7,145.9,388.1,145.9z"/>
	<g>
		<path class="st1" d="M130.8,32.3c2.5-0.6,5-0.8,7.6-0.8c2.6,0,5.2,0.3,7.6,0.8l-16.1,61.5c-2.8,0.5-5.6,0.7-8.2,0.7
			c-2.4,0-5.2-0.2-8.3-0.7L102,52.5L90.6,93.8c-2.8,0.5-5.5,0.7-8.1,0.7c-2.4,0-5.2-0.2-8.3-0.7L58,32.3c2.6-0.6,5.1-0.8,7.6-0.8
			c2.6,0,5.1,0.3,7.6,0.8l10.5,43.4l10.1-43.4c2.6-0.6,5.4-0.8,8.2-0.8c2.9,0,5.6,0.3,8.1,0.8l12.2,43.5L130.8,32.3z"/>
		<path class="st1" d="M167.8,94.7c-4.9,0-9.2-1-12.9-3c-3.7-2-6.5-4.8-8.5-8.5c-2-3.7-3-8.1-3-12.9c0-4.9,1-9.2,3.1-12.8
			c2.1-3.7,4.9-6.5,8.6-8.5c3.7-2,8-3,12.7-3c4.9,0,9.2,1,12.9,3.1c3.7,2,6.5,4.8,8.5,8.5c2,3.7,3,7.9,3,12.7c0,5-1,9.3-3,13
			c-2,3.7-4.8,6.5-8.5,8.5C177,93.7,172.7,94.7,167.8,94.7z M167.8,82.5c3.3,0,5.8-1,7.6-3.1c1.8-2.1,2.7-5.2,2.7-9.2
			c0-3.9-0.9-6.9-2.7-9c-1.8-2.1-4.3-3.2-7.6-3.2c-3.2,0-5.7,1.1-7.6,3.3c-1.8,2.1-2.7,5.1-2.7,8.9c0,4,0.9,7.1,2.7,9.2
			C162,81.5,164.6,82.5,167.8,82.5z"/>
		<path class="st1" d="M249.9,46c5.2,0,9.6,1.3,13,3.9c3.4,2.6,5.1,6.1,5.1,10.5v33.3h-14V65.4c0-2.4-0.8-4.3-2.3-5.5
			c-1.5-1.3-3.7-2-6.5-2c-2.5,0-4.9,0.5-7.2,1.4c0.7,2.1,1.1,4.3,1.1,6.7v27.7h-14V65.4c0-2.4-0.8-4.3-2.3-5.5c-1.5-1.3-3.7-2-6.5-2
			c-2.1,0-4.1,0.2-6,0.7v35.1h-14.1l0.1-41.7c2.7-1.9,6.1-3.4,10.1-4.5c4-1.1,7.9-1.6,11.7-1.6c2.9,0,5.6,0.5,8.1,1.4
			c2.5,0.9,4.7,2.1,6.6,3.7c2.4-1.6,5.2-2.8,8.2-3.7C244.2,46.5,247.1,46,249.9,46z"/>
		<path class="st1" d="M295.3,46c8.6,0,15.2,2.2,20,6.7c4.9,4.5,7.3,10.9,7.3,19.1c0,6.8-1.7,12.3-5.1,16.6
			c-3.3,4.2-8.3,6.3-15.1,6.3c-2.2,0-4.4-0.3-6.6-1c-2.2-0.7-4.3-1.8-6.3-3.1v17.3c-1.5,1.2-3.7,2.2-6.7,3.2
			c-2.9,0.9-5.4,1.4-7.4,1.4V49.6c2.4-1.1,5.3-2,8.8-2.6C287.8,46.3,291.5,46,295.3,46z M296.5,82.9c3.9,0,6.9-1,9-3
			c2.1-2,3.1-5.2,3.1-9.7c0-3.7-1.1-6.8-3.2-9.3c-2.1-2.4-5.2-3.7-9.3-3.7c-2.1,0-4.2,0.2-6.6,0.6v24.4
			C291.8,82.7,294.1,82.9,296.5,82.9z"/>
		<path class="st1" d="M334.7,39.7c-2,0-3.7-0.7-5.1-2.1c-1.4-1.4-2.1-3.2-2.1-5.2c0-2,0.7-3.7,2.2-5.1c1.4-1.4,3.1-2.2,5.1-2.2
			c2,0,3.7,0.7,5.1,2.2c1.4,1.4,2.2,3.1,2.2,5.1c0,1.9-0.7,3.6-2.2,5.1C338.4,39,336.7,39.7,334.7,39.7z M327.6,47.3
			c2.1-0.9,4.4-1.3,7.1-1.3c2.6,0,5,0.4,7,1.3v46.4h-14.1V47.3z"/>
		<path class="st1" d="M71.9,118.5v-9.6c0-1,0.7-1.8,1.6-2c4.7-0.9,18.7-3.2,30.3-3.2c11.6,0,26,2.4,30.8,3.2c1,0.2,1.6,1,1.6,2v9.7
			c0,1.4-1.4,2.4-2.7,2.1c-4.4-1-14-2.8-29.7-2.8c-15.5,0-24.9,1.7-29.1,2.8C73.3,120.9,71.9,119.9,71.9,118.5z"/>
	</g>
</g>
</svg>
