<?xml version="1.0" encoding="utf-8"?>
<!-- Generator: Adobe Illustrator 27.1.1, SVG Export Plug-In . SVG Version: 6.00 Build 0)  -->
<svg version="1.1" id="Capa_1" xmlns="http://www.w3.org/2000/svg" xmlns:xlink="http://www.w3.org/1999/xlink" x="0px" y="0px"
	 viewBox="0 0 1512.8 494.1" style="enable-background:new 0 0 1512.8 494.1;" xml:space="preserve">
<style type="text/css">
	.st0{fill:#DB8E56;}
	.st1{fill:#575756;}
	.st2{fill:#1D1D1B;}
</style>
<g>
	<path class="st0" d="M245.8,24.8c-122.5,0-222.3,99.7-222.3,222.3s99.7,222.3,222.3,222.3c122.5,0,222.3-99.7,222.3-222.3
		S368.3,24.8,245.8,24.8z M372.8,424L372.8,424c-4.2,0.4-8.3,0.7-12.3,1.2c-2.2,0.2-4.5,0.6-6.6,0.7c-4.5,0.4-8.8,1.1-13.3,1.8
		c-1.9,0.4-4,0.6-5.9,0.5c-3.4-0.1-6.8-0.1-10.3,0.2c-3.5,0.4-7,0.7-10.5,0.4c-4.1-0.4-8.2-0.4-12.2,1c-2.2,0.7-4.5,0.2-6.5,1.2
		c-1.6,0.7-3.1,0.5-4.8,0.4c-2.9-0.4-5.8-1.3-8.7-1.1c-2.9,0.2-5.8,0-8.7-0.7c-2.5-0.6-5.1-0.8-7.6-1.7c-1.4-0.5-2.1-1.2-2.2-2.8
		c-0.1-1.6-0.4-3-0.7-4.5c-0.6-2.5-0.5-5.2-0.6-7.7c-0.1-1.4,0.6-2.2,1.8-2.5c0.8-0.4,1.7-0.7,2.5-1.1c1.4-0.6,2.2-1.7,2.1-3.4
		c-0.1-1.3-0.1-2.5-0.2-3.9c-0.6-5.2-0.5-10.4-0.7-15.5c0-1.7,0.1-3.3,0.4-5c0.4-2.7,0.8-5.3,1.1-8.1c0.6-5.9,0.4-11.7-1.7-17.4
		c-0.5-1.2-1-2.4-1.2-3.6c-0.5-1.9-1.8-3.9-0.8-6c0.1-0.4-0.1-1-0.2-1.3c-0.4-0.8-0.4-1.8-0.5-2.8c-0.2-4,0.1-8,0.6-12
		c0.6-4.7,1.1-9.3,1.1-14c0-2.7,0.1-5.4,0.7-8.1c0.4-1.7,0.5-3.5,1-5.2c0.5-1.8,0.8-3.6,1-5.4c0-0.6,0.1-1.3,0.5-1.7
		c0.8-1,0.4-2.1,0.7-3c0.4-1,0.5-1.9,0.7-2.9c0.8-4,1.1-8.1,1.1-12.2c-0.1-4.7-1.1-9.3-2.5-13.8c-1.7-5.3-4-10.5-7-15.5
		c1.2-1.1,2.4-0.6,3.4-0.8c0.6-0.2,1-0.6,0.8-1.3c-0.1-0.7-0.2-1.4-0.4-2.1c-1.7-7.7-3.3-15.3-5.1-23.1c-0.5-1.8-0.5-3.5,0.5-5.1
		c0.6-1.1,1-2.2,0.7-3.4c-0.5-2.2-0.1-4.2,0.7-6.2c1.2-2.9,1.9-6,3-8.9c0.7-2.1,1.6-4.2,3.6-5.4c2.8-1.4,3-4,2.9-6.6
		c-0.1-1.9-1.2-3.5-2.1-5.2c-3.9-6.9-7.9-13.6-10.4-21.1c-1-2.8-2.2-5.3-2.9-8.2c-0.6-2.7-1.4-5.2-1.9-7.9c-0.5-2.3-0.4-4.7-0.8-7
		c-1.1-5.1-2.5-10-4.1-15c-1.3-4.3-2.7-8.7-3.5-13.3c-0.5-2.7-1.1-5.3-1.8-7.9c-0.5-1.9-0.8-3.9-0.4-5.9c0.2-0.8,0.2-1.7,0.1-2.4
		c-0.6-2.7-0.5-5.4-0.7-8.1c-0.1-1.4-0.4-2.5-1.9-3c-0.8-0.2-1.1-1.2-1.3-1.9c-0.4-0.8-0.6-1.9-1.3-2.4c-1.6-1-3.3-1.7-5-2.5
		c-0.5-0.2-1,0-1.2,0.4c-1.2,1.8-2.9,3.4-3,5.8c0,0.8-0.6,1.8-1,2.7c-1.7,3.9-2.5,8.1-3,12.3c-0.4,3.4-0.8,6.8-1.7,10
		c-1.6,6.5-3.5,12.9-4.5,19.6c-0.5,3.6-1.2,7.2-0.8,10.9c0.2,2.9,0.5,5.9,0.6,8.8c0.1,5.7,1.2,11.2,1.9,16.8
		c0.5,4.3,1.1,8.6,1.1,12.9c0,1.3-0.2,2.5-0.7,3.7c-1.4,3.7-2.9,7.5-4.2,11.2c-0.8,2.3-1.7,4.6-2.8,6.8c-0.7,1.2-1.2,2.5-1.4,4
		c-0.4,3-0.6,6-0.8,9.1c-0.2,2.1-0.1,4.1,0.2,5.9c1.1,4.6,1.2,9.3,1.8,14c0.1,0.7,0.1,1.4,0.2,2.1c1.7,5.3,1.7,10.9,1.8,16.4
		c0,1.4,0.2,2.8,0.8,4.1c0.7,1.6,1.2,3.3,1.3,5.1c0.2,1.8-0.6,3.3-2.1,4.1c-2.7,1.4-5.2,3.1-8.1,4.1c-3.5,1.2-6.9,2.9-10.3,4.6
		c-5.2,2.5-10.3,5.2-15.3,8c-3.3,1.7-6.3,3.6-9.4,5.7c-2.1,1.2-3.9,2.8-5.3,4.6c-2.7,3.3-3.7,7-2.7,11.2c1,4,3.1,7,6.4,9.4
		c2.8,2.1,5.8,3.5,9.1,4.7c6.6,2.4,13.3,4.8,19.8,7.5c3,1.2,6,2.7,8.7,4.5c5.9,4,12,7.9,18,11.8c0.5,0.4,1.1,0.7,1.6,0.7
		c2.1-0.5,2.8,1,3.5,2.3c0.5,1,0.8,1.9,1.2,2.9c0.6,2.2,1.3,4.2,2.4,6.3c1,1.8,1.7,3.6,1.7,5.7c0,1.2,0.4,2.3,1.2,3.3
		c2.2,2.5,2.9,5.6,3.3,8.8c0.1,1.2,0.6,1.9,1.9,1.9c0.5,0,0.8-0.1,1.2,0.5c0.8,1.7,2.1,3.3,2.2,5.3c0.4,5.1,1,10,1.4,15.1
		c0.2,2.5,0.5,5.2-0.5,7.7c-0.2,0.6-0.1,1.4-0.1,2.1c-0.1,1.9-0.1,3.7-0.2,5.7c-0.1,2.1-0.2,4.2-0.7,6.3c-0.5,2.4-2.1,4.5-3.4,6.5
		c-1.4,2.3-3.6,3.6-6,4.7c-1.2,0.6-2.7,0.8-4.1,0.6c-2.4-0.4-4.8-0.7-7.2-1.4c-4-1.2-8.1-1.3-12-2.7c-1.6-0.5-3.3-0.1-4.8-0.4
		c-3.5-0.4-7-0.5-10.5-0.4c-0.6,0-1.1-0.1-1.7-0.4c-1.6-1-3.4-0.7-5.2-0.7c-2.8,0-5.7,0.4-8.1-1.4c-0.4-0.2-0.8-0.2-1.3-0.2
		c-1.1,0-2.1-0.2-3.1-0.6c-4.3-1.4-9.1-1.4-13.4-2.7c-0.5-0.1-1.2-0.1-1.7,0c-2.4,0.7-4.6-0.1-6.8-1.2c-1.2-0.6-2.3-1.3-3.6-1.2
		c-1.6,0-3-0.5-4.5-1c-1.3-0.4-2.7-0.8-4.1-1.1c-3.9-0.7-7.9-1-11.6-2.5c-0.7-0.2-1.6-0.2-2.4-0.4c-0.8-0.1-1.6-0.2-2.4-0.5
		c-3.3-1.1-6.6-1.6-10-1.7c-3.3-0.1-6.5-0.4-9.9-0.6c-1.1,0-1.9-0.4-2.9-1c-2.1-1.4-4.2-2.5-6.5-3.3c-3-1-6.2-1.3-9.4-1.2
		c-1,0-1.9,0-2.9,0c-37-39-59.6-91.8-59.6-149.7c0-120.2,97.8-218,218-218s218,97.8,218,218C463.9,319.8,427.9,384.4,372.8,424z
		 M233.6,122.9c0-2.7-0.1-5.3-0.5-8.1c-0.4-3-0.2-6,0-9.2c0.1-1.4,0.2-2.9,0.5-5.1c1.4,2.1,2.4,3.5,2.5,5.6c0.2,3.5,0.5,7,0.7,10.5
		c0.2,3,0.4,6,0.7,9.1c0.2,1.9-0.4,3.1-2.2,3.9c-0.6,0.2-1.1,0.7-1.8,1.2C233.6,128.1,233.6,125.5,233.6,122.9z M233,292.7
		c0.4,1,0.8,1.9,1.1,3c1.3,5.7,2.9,11.4,3,17.3c0.1,2.4,0.5,5,0.7,7.4c0,0.6-0.6,1.1-1.2,0.8c-1.1-0.5-2.2-1-3-1.7
		c-3.7-3-7.9-5.6-11.7-8.3c-4.7-3.4-9.1-7.5-13.4-11.6c0.6-0.2,1.1-0.6,1.4-0.6c5.8-1.4,11.4-3.6,17-5.6c1.4-0.5,2.9-0.8,4.3-1.3
		C232.1,291.6,232.7,291.9,233,292.7z"/>
	<g>
		<path class="st1" d="M545.6,86.1h77.5c21.4,0,39.6,7.6,54.8,22.7c15.2,15.2,22.7,33.5,22.7,54.8s-7.6,39.6-22.7,54.8
			c-7.1,7.1-14.9,12.4-23.4,16.2l37.3,64.6h-7.8l-35.6-61.9c-8,2.7-16.4,3.8-25.3,3.8h-71.1v58.1h-6.5V86.1z M552.1,92.6v142.3h71.1
			c19.7,0,36.4-7,50.4-20.9c13.9-13.9,20.9-30.6,20.9-50.4s-7-36.4-20.9-50.4s-30.6-20.9-50.4-20.9h-71.1V92.6z"/>
		<path class="st1" d="M830,86.1l99.5,213.3h-7.1l-16.2-34.9H745.9l-16.2,34.9h-7.3l99.5-213.3H830z M903.1,258.1L826,92.8
			l-77,165.3H903.1z"/>
		<path class="st1" d="M1138.8,112.6c22,22,33.1,48.7,33.1,79.8c0,31.3-11.1,58.1-33.1,80.2c-22,22-48.7,33.1-79.8,33.1
			c-31.3,0-58.1-11.1-80.2-33.1c-22-22-33.1-48.9-33.1-80.2c0-31.1,11.1-57.8,33.1-79.8c22-22,48.9-33.1,80.2-33.1
			C1090.1,79.5,1116.7,90.6,1138.8,112.6 M1058.9,86.1c-29.5,0-54.7,10.4-75.5,31.3c-20.9,20.9-31.3,45.9-31.3,75.2
			c0,29.5,10.4,54.7,31.3,75.5c20.9,20.9,46,31.3,75.5,31.3c29.3,0,54.3-10.4,75.2-31.3c20.9-20.9,31.3-46,31.3-75.5
			c0-29.3-10.4-54.3-31.3-75.2C1113.2,96.4,1088.2,86.1,1058.9,86.1 M1059.2,188.5L1172,301.3l-4.6,4.6l-112.8-112.8L1059.2,188.5z"
			/>
		<rect x="1224.2" y="86" class="st1" width="6.5" height="213.3"/>
		<polygon class="st1" points="1292.5,105.5 1304.7,60.1 1311.7,60.1 1299.4,105.5 		"/>
		<path class="st1" d="M1389.7,86.1l99.5,213.3h-7.3l-16.2-34.9h-160.3l-16.2,34.9h-7.3l99.5-213.3H1389.7z M1462.7,258.1l-77-165.3
			l-77,165.3H1462.7z"/>
		<polygon class="st0" points="651,431.5 643.2,431.5 643.2,404.7 609.7,404.7 609.7,431.5 601.9,431.5 601.9,372.2 609.7,372.2 
			609.7,396.9 643.2,396.9 643.2,372.2 651,372.2 		"/>
		<path class="st0" d="M697.5,433.5c-8.8,0-16.2-3.1-22.4-9.3c-6.1-6.1-9.3-13.7-9.3-22.4c0-8.8,3.1-16.2,9.3-22.4
			c6.1-6.1,13.7-9.3,22.4-9.3c8.8,0,16.2,3.1,22.4,9.3c6.1,6.1,9.3,13.7,9.3,22.4c0,8.6-3.1,16.2-9.3,22.4
			C713.7,430.5,706.1,433.5,697.5,433.5 M697.5,378c-6.6,0-12.3,2.3-16.9,7c-4.6,4.6-7,10.3-7,16.9c0,6.6,2.3,12.3,7,16.9
			c4.6,4.6,10.3,7,16.9,7s12.3-2.3,16.9-7c4.6-4.6,7-10.3,7-16.9c0-6.6-2.3-12.3-7-16.9C709.8,380.3,704.1,378,697.5,378"/>
		<polygon class="st0" points="757.6,431.5 749.8,431.5 749.8,380 733.3,380 733.3,372.2 774,372.2 774,380 757.6,380 		"/>
		<polygon class="st0" points="848.2,431.5 840.4,431.5 840.4,414.4 815.9,372.2 825,372.2 844.3,405.7 863.6,372.2 872.6,372.2 
			848.2,414.4 		"/>
		<path class="st0" d="M907,433.5c-8.8,0-16.2-3.1-22.4-9.3c-6.1-6.1-9.3-13.7-9.3-22.4c0-8.8,3.1-16.2,9.3-22.4
			c6.1-6.1,13.7-9.3,22.4-9.3c8.8,0,16.2,3.1,22.4,9.3c6.1,6.1,9.3,13.7,9.3,22.4c0,8.6-3.1,16.2-9.3,22.4
			C923.3,430.5,915.8,433.5,907,433.5 M907,378c-6.6,0-12.3,2.3-16.9,7c-4.6,4.6-7,10.3-7,16.9c0,6.6,2.3,12.3,7,16.9s10.3,7,16.9,7
			c6.6,0,12.3-2.3,16.9-7c4.6-4.6,7-10.3,7-16.9c0-6.6-2.3-12.3-7-16.9C919.3,380.3,913.8,378,907,378"/>
		<path class="st0" d="M998.1,384.9c-4.6-4.6-10.3-7-16.9-7s-12.3,2.3-16.9,7c-4.6,4.6-7,10.3-7,16.9c0,6.6,2.3,12.3,7,16.9
			s10.3,7,16.9,7c5.8,0,10.8-1.7,15.1-5.1v-15.9h-20.5v-7.8h28.3v27l-0.8,0.8c-6.1,5.8-13.4,8.8-21.9,8.8c-8.8,0-16.2-3.1-22.4-9.3
			c-6.1-6.1-9.3-13.7-9.3-22.4c0-8.8,3.1-16.2,9.3-22.4c6.1-6.1,13.7-9.3,22.4-9.3s16.2,3.1,22.5,9.3l2.3,2.5l-5.6,5.5l-2-2
			L998.1,384.9z"/>
		<path class="st0" d="M1042.8,372.2h2.3l27.7,59.3h-8.6l-4.8-10.3h-34.8l-4.8,10.3h-8.6l27.7-59.3h2.3H1042.8z M1028.3,413.4h27.5
			l-13.7-29.3L1028.3,413.4z"/>
		<path class="st0" d="M1160,383.6l5.5-6l-3.3-2.3c-6-4-12.8-6.1-20.5-6.1h-0.7c-5.1,0.2-9.4,1.3-12.8,3.6c-3.5,2.3-5.8,5.8-7,10.1
			c-0.3,1.3-0.3,2.7-0.3,3.8c0,3.3,1,6.3,2.7,8.8c2.5,3.6,6.3,6.3,11.4,7.6l3.6,0.8l10.3,2.5c3,0.8,5.1,2.3,6.3,4.3
			c0.8,1.5,1.3,3,1.3,4.6c0,0.8-0.2,1.5-0.3,2.5c-0.7,2.7-2,4.6-4,6c-2.2,1.2-4.3,2-6.5,2.2c-1.3,0.2-2.7,0.2-4,0.2
			c-5.3,0-10.3-1.3-14.9-3.8l-3.3-1.8l-4.1,6.5l2.8,1.5l0.3,0.2c6,3.5,12.4,5.3,19.2,5.3c1.7,0,3.3-0.2,5.1-0.3
			c3.3-0.5,6.3-1.5,9.3-3.1c4.1-2.5,6.6-6.1,7.8-10.9c0.3-1.5,0.5-2.8,0.5-4.1c0-3.1-0.8-6-2.3-8.6c-2.3-3.8-6-6.5-10.9-8l-14.1-3.3
			l-0.7-0.2c-2.8-1-4.8-2.3-6.1-4.3c-1-1.3-1.5-2.8-1.5-4.5c0-0.7,0.2-1.5,0.2-2.3c0.7-2.3,1.8-4.1,3.8-5.5c2-1.3,5-2.2,8.4-2.3h0.7
			c5.5,0,10.4,1.3,14.7,3.8C1156.3,381,1158.5,382.3,1160,383.6"/>
		<polygon class="st0" points="1196.1,431.5 1188.3,431.5 1188.3,380 1171.9,380 1171.9,372.2 1212.6,372.2 1212.6,380 1196.1,380 
					"/>
		<path class="st0" d="M1244.8,433.5c-6.5,0-12.1-2.3-16.6-6.8c-4.5-4.5-6.8-10.1-6.8-16.6v-37.9h7.8v37.9c0,4.3,1.5,8,4.6,11.1
			c3.1,3.1,6.8,4.6,11.1,4.6s8-1.5,11.1-4.6c3.1-3.1,4.6-6.8,4.6-11.1v-37.9h7.8v37.9c0,6.5-2.3,12.1-6.8,16.6
			C1256.8,431.3,1251.2,433.5,1244.8,433.5"/>
		<path class="st0" d="M1306.5,431.5h-21.4v-59.3h21.4c8.1,0,15.2,3,21,8.6c5.8,5.8,8.6,12.8,8.6,21c0,8.1-3,15.2-8.6,21
			C1321.8,428.5,1314.7,431.5,1306.5,431.5 M1293,423.7h13.6c6.1,0,11.1-2.2,15.4-6.5c4.3-4.3,6.5-9.3,6.5-15.4s-2.2-11.1-6.5-15.4
			s-9.4-6.5-15.4-6.5H1293V423.7z"/>
		<rect x="1350.9" y="372.2" class="st0" width="7.8" height="59.3"/>
		<path class="st0" d="M1405.3,433.5c-8.8,0-16.2-3.1-22.4-9.3c-6.1-6.1-9.3-13.7-9.3-22.4c0-8.8,3.1-16.2,9.3-22.4
			c6.1-6.1,13.7-9.3,22.4-9.3c8.8,0,16.2,3.1,22.4,9.3c6.1,6.1,9.3,13.7,9.3,22.4c0,8.8-3.1,16.2-9.3,22.4
			C1421.5,430.5,1414,433.5,1405.3,433.5 M1405.3,378c-6.6,0-12.3,2.3-16.9,7c-4.6,4.6-7,10.3-7,16.9c0,6.6,2.3,12.3,7,16.9
			c4.6,4.6,10.3,7,16.9,7s12.3-2.3,16.9-7c4.6-4.6,7-10.3,7-16.9c0-6.6-2.3-12.3-7-16.9C1417.5,380.3,1412,378,1405.3,378"/>
		<g>
			<rect x="703.6" y="343.7" class="st2" width="626.9" height="0.8"/>
		</g>
	</g>
</g>
</svg>
