<?xml version="1.0" encoding="utf-8"?>
<!-- Generator: Adobe Illustrator 27.1.1, SVG Export Plug-In . SVG Version: 6.00 Build 0)  -->
<svg version="1.1" id="Capa_1" xmlns="http://www.w3.org/2000/svg" xmlns:xlink="http://www.w3.org/1999/xlink" x="0px" y="0px"
	 viewBox="0 0 120 170" style="enable-background:new 0 0 120 170;" xml:space="preserve">
<style type="text/css">
	.st0{fill:#DB8E56;}
</style>
<path class="st0" d="M15.5,74.7c0.9,8,7.9,20.5,16.2,22.6C24.4,67.4,27.7,31,51.1,8.9c0.9-0.8,8.2-7.2,8.9-6.4
	c-1,8-2.1,16.5-0.2,24.4c5.5,22.2,32.6,34.5,45.8,52.4c22.1,30,10.8,75.7-25,88.2c13.7-12.6,13.2-31.7,7.1-48.1
	c-0.6-1.6-1.2-4-2.6-4.9c0.4,5.8-0.3,12.1-4.2,16.7c-0.6,0.7-4,3.5-4.7,2.8c4.1-18.3,1.6-40.9-15.3-51.8c-0.9,0.4,0.3,1.6,0.3,1.9
	v10c0,9.6-18.2,20.9-24,27.9c-10.9,13.2-10.6,30.9,0.5,43.7c-10.8-3.9-20.5-13.1-26.3-23c-15-25.8-7.7-58.9,4-84.5
	c1.4,0,0,1.6,0,1.9C15.5,64.6,15,70.5,15.5,74.7"/>
</svg>
